<?xml version="1.0" encoding="UTF-8"?>
<svg id="_图层_1" data-name="图层_1" xmlns="http://www.w3.org/2000/svg" version="1.1" viewBox="0 0 24 24">
  <!-- Generator: Adobe Illustrator 29.0.1, SVG Export Plug-In . SVG Version: 2.1.0 Build 192)  -->
  <defs>
    <style>
      .st0 {
        fill: #fff;
        fill-rule: evenodd;
      }
    </style>
  </defs>
  <g id="_x5F_Public_x2F_ic_x5F_public_x5F_play_x5F_last">
    <g id="_形状结合">
      <path id="_path-1" class="st0" d="M19.3,6.7c.2.3.2.6.2.9v8.9c0,1-.8,1.8-1.8,1.8s-.6,0-.9-.2l-7.7-4.5c-.8-.5-1.1-1.6-.6-2.4.2-.3.4-.5.6-.6l7.7-4.5c.8-.5,1.9-.2,2.4.6ZM5,6.2c.6,0,1,.4,1,1h0v9.5c0,.6-.4,1-1,1s-1-.4-1-1h0V7.2c0-.6.4-1,1-1Z"/>
    </g>
  </g>
</svg>