<?xml version="1.0" encoding="UTF-8"?>
<svg id="_图层_1" data-name="图层_1" xmlns="http://www.w3.org/2000/svg" version="1.1" viewBox="0 0 24 24">
  <!-- Generator: Adobe Illustrator 29.0.1, SVG Export Plug-In . SVG Version: 2.1.0 Build 192)  -->
  <defs>
    <style>
      .st0 {
        fill: #fff;
        fill-rule: evenodd;
      }
    </style>
  </defs>
  <g id="_x5F_Public_x2F_ic_x5F_public_x5F_play_x5F_next">
    <g id="_形状结合">
      <path id="_path-1" class="st0" d="M4.7,6.7c.5-.8,1.6-1.1,2.4-.6h0l7.7,4.5c.3.2.5.4.6.6.5.8.2,1.9-.6,2.4h0l-7.7,4.5c-.3.2-.6.2-.9.2-1,0-1.8-.8-1.8-1.8h0V7.5c0-.3,0-.6.2-.9ZM18.2,6.2c.6,0,1,.4,1,1v9.5c0,.6-.4,1-1,1s-1-.4-1-1V7.2c0-.6.4-1,1-1Z"/>
    </g>
  </g>
</svg>