<?xml version="1.0" encoding="UTF-8"?>
<svg id="_图层_1" data-name="图层_1" xmlns="http://www.w3.org/2000/svg" version="1.1" viewBox="0 0 24 24">
  <!-- Generator: Adobe Illustrator 29.0.1, SVG Export Plug-In . SVG Version: 2.1.0 Build 192)  -->
  <defs>
    <style>
      .st0 {
        fill: #fff;
      }
    </style>
  </defs>
  <g id="_x5F_Public_x2F_ic_x5F_public_x5F_pause_x5F_norm">
    <g id="_形状结合">
      <path id="_path-1" class="st0" d="M12,1c6.1,0,11,4.9,11,11s-4.9,11-11,11S1,18.1,1,12,5.9,1,12,1ZM12,2.5C6.8,2.5,2.5,6.8,2.5,12s4.3,9.5,9.5,9.5,9.5-4.3,9.5-9.5S17.2,2.5,12,2.5ZM9.5,7.5c.6,0,1,.4,1,1v7c0,.6-.4,1-1,1s-1-.4-1-1v-7c0-.6.4-1,1-1ZM14.5,7.5c.6,0,1,.4,1,1v7c0,.6-.4,1-1,1s-1-.4-1-1v-7c0-.6.4-1,1-1Z"/>
    </g>
  </g>
</svg>