<?xml version="1.0" standalone="no"?><!DOCTYPE svg PUBLIC "-//W3C//DTD SVG 1.1//EN" "http://www.w3.org/Graphics/SVG/1.1/DTD/svg11.dtd"><svg t="1782558942612" class="icon" viewBox="0 0 1024 1024" version="1.1" xmlns="http://www.w3.org/2000/svg" p-id="108678" xmlns:xlink="http://www.w3.org/1999/xlink" width="20" height="20"><path d="M512 64C264.57 64 64 264.57 64 512s200.57 448 448 448c247.42 0 448-200.57 448-448S759.42 64 512 64z m0.43 812.34c-201.12 0-364.02-163.01-364.02-364.02s163.01-364.01 364.02-364.01c201 0 364.01 163.01 364.01 364.01s-163 364.02-364.01 364.02z" p-id="108679" fill="#ffffff"></path><path d="M448.09 310.7c-13.64-9.99-33.56-0.88-33.56 15.34v371.91c0 16.22 19.93 25.33 33.56 15.34L702.1 527.33c10.65-7.8 10.65-22.89 0-30.69L448.09 310.7z" p-id="108680" fill="#ffffff"></path></svg>