<?xml version="1.0" standalone="no"?><!DOCTYPE svg PUBLIC "-//W3C//DTD SVG 1.1//EN" "http://www.w3.org/Graphics/SVG/1.1/DTD/svg11.dtd"><svg t="1782558106940" class="icon" viewBox="0 0 1024 1024" version="1.1" xmlns="http://www.w3.org/2000/svg" p-id="53330" xmlns:xlink="http://www.w3.org/1999/xlink" width="20" height="20"><path d="M137.846154 929.476923a122.092308 122.092308 0 0 1-122.092308-122.092308v-590.76923a122.092308 122.092308 0 0 1 122.092308-122.092308h160.768a122.092308 122.092308 0 0 1 63.881846 18.156308c43.204923 26.781538 77.390769 46.710154 102.321231 59.746461 19.219692 10.082462 32.768 15.478154 30.956307 15.478154H728.615385a122.092308 122.092308 0 0 1 122.092307 122.092308v35.446154h37.691077a122.092308 122.092308 0 0 1 113.506462 167.030153l-134.537846 339.889231a122.092308 122.092308 0 0 1-113.506462 77.115077H137.846154z m750.552615-497.388308H309.563077a35.446154 35.446154 0 0 0-32.964923 22.409847l-134.537846 339.849846a35.446154 35.446154 0 0 0 32.964923 48.482461H753.821538a35.446154 35.446154 0 0 0 32.964924-22.409846l134.537846-339.810461a35.446154 35.446154 0 0 0-32.964923-48.521847zM137.846154 181.169231a35.446154 35.446154 0 0 0-35.446154 35.446154l-0.039385 442.446769 93.656616-236.465231a122.092308 122.092308 0 0 1 113.506461-77.154461H764.061538v-35.446154a35.446154 35.446154 0 0 0-35.446153-35.446154h-232.841847c-28.514462 0-79.556923-26.702769-178.806153-88.142769l-4.292923-2.244923a35.446154 35.446154 0 0 0-9.29477-2.63877L298.535385 181.169231H137.846154z" fill="#ffffff" p-id="53331"></path></svg>