<?xml version="1.0" encoding="UTF-8"?>
<!-- Generated by Pixelmator Pro 4.2 -->
<svg width="300" height="300" viewBox="0 0 300 300" xmlns="http://www.w3.org/2000/svg">
    <path id="path1" fill="#ffffff" stroke="none" d="M 28.125 18.75 C 28.125 13.572327 32.32233 9.375 37.5 9.375 L 262.5 9.375 C 267.677673 9.375 271.875 13.572327 271.875 18.75 L 271.875 56.25 C 271.875 61.427673 267.677673 65.625 262.5 65.625 C 257.322327 65.625 253.125 61.427673 253.125 56.25 L 253.125 28.125 L 46.875 28.125 L 46.875 56.25 C 46.875 61.427673 42.67767 65.625 37.5 65.625 C 32.32233 65.625 28.125 61.427673 28.125 56.25 L 28.125 18.75 Z M 28.125 281.25 C 28.125 286.427673 32.32233 290.625 37.5 290.625 L 262.5 290.625 C 267.677673 290.625 271.875 286.427673 271.875 281.25 L 271.875 243.75 C 271.875 238.572327 267.677673 234.375 262.5 234.375 C 257.322327 234.375 253.125 238.572327 253.125 243.75 L 253.125 271.875 L 46.875 271.875 L 46.875 243.75 C 46.875 238.572327 42.67767 234.375 37.5 234.375 C 32.32233 234.375 28.125 238.572327 28.125 243.75 L 28.125 281.25 Z M 188.90625 179.550003 C 188.90625 191.774994 192.1875 201.206238 198.393753 207.675003 C 204.581253 214.350006 213.506256 217.5 225.318756 217.5 C 237.131256 217.5 246.225006 214.350006 252.806244 207.881256 C 259.200012 201.581268 262.5 192.318756 262.5 180.46875 C 262.5 170.662506 260.362488 162.712509 256.125 156.787506 C 251.850006 150.862488 245.25 146.043747 235.96875 141.975006 L 227.25 138.262497 C 222.206253 136.237503 218.53125 133.818756 216.393753 131.231247 C 214.275009 128.643753 213.300003 124.931259 213.300003 120.487503 C 213.300003 110.868759 217.574997 105.862503 226.274994 105.862503 C 230.925003 105.862503 234.224991 107.362503 236.15625 110.306244 C 238.087494 113.268753 239.25 117.543747 239.456253 123.28125 L 261.337494 123.28125 C 260.962494 111.431244 257.662506 102.168747 251.643738 95.868744 C 245.643753 89.587494 237.131256 86.25 226.274994 86.25 C 215.043747 86.25 206.324997 89.587494 199.743744 95.868744 C 193.162506 102.356247 190.068756 110.868759 190.068756 121.612503 C 190.068756 130.856247 191.812485 138.074997 195.693756 143.456253 C 199.556244 149.006256 205.743744 153.449997 214.462494 157.143738 L 223.574997 161.043747 C 229.199997 163.631256 233.249985 166.21875 235.574997 169.181244 C 238.091415 172.537292 239.387802 176.651321 239.25 180.84375 C 239.25 186.768768 238.087494 191.212494 235.96875 193.800018 C 233.831238 196.575012 230.53125 197.868759 225.900009 197.868759 C 221.25 197.868759 217.574997 196.387497 215.231247 193.425003 C 212.925003 190.462494 211.556244 185.849991 211.368744 179.550003 L 188.90625 179.550003 Z M 61.3125 108.824997 L 61.3125 141.412491 L 92.306244 141.412491 L 92.306244 161.962494 L 61.331249 161.962494 L 61.331249 216.018738 L 37.5 216.018738 L 37.5 88.293747 L 97.162506 88.293747 L 97.162506 108.824997 L 61.3125 108.824997 Z M 173.474991 98.287506 C 179.100006 104.943756 182.006241 115.125 182.006241 128.456253 C 182.006241 142.143753 179.100006 152.15625 173.287491 158.831238 C 167.475006 165.487503 158.175003 168.806259 145.40625 168.806259 L 133.012497 168.806259 L 133.012497 216.018738 L 109.387505 216.018738 L 109.387505 88.293747 L 145.387497 88.293747 C 158.568741 88.293747 167.868744 91.612503 173.474991 98.287506 Z M 155.100006 143.456253 C 157.012497 140.306244 158.175003 135.300003 158.175003 128.456253 C 158.175003 121.800003 157.012497 116.793747 155.081253 113.456253 C 153.150009 110.306244 149.643753 108.65625 144.618744 108.65625 L 132.993744 108.65625 L 132.993744 148.256256 L 144.618744 148.256256 C 149.662491 148.256256 153.150009 146.774994 155.081253 143.456253 L 155.100006 143.456253 Z"/>
</svg>
