<?xml version="1.0" encoding="UTF-8" standalone="no"?>
<!DOCTYPE svg PUBLIC "-//W3C//DTD SVG 1.1//EN" "http://www.w3.org/Graphics/SVG/1.1/DTD/svg11.dtd">
<svg width="100%" height="100%" viewBox="0 0 14 13" version="1.1" xmlns="http://www.w3.org/2000/svg" xmlns:xlink="http://www.w3.org/1999/xlink" xml:space="preserve" xmlns:serif="http://www.serif.com/" style="fill-rule:evenodd;clip-rule:evenodd;stroke-linejoin:round;stroke-miterlimit:2;">
    <g transform="matrix(1,0,0,1,-1,-1.66)">
        <g id="hide-icon-active">
            <g id="Combined-Shape" transform="matrix(1,0,0,1,1,1)">
                <path d="M2.067,10.567C0.999,9.601 0.491,8.635 0.491,8.635C-0.151,7.732 -0.177,6.247 0.491,5.365C0.491,5.365 2.526,1.5 7,1.5C8.317,1.5 9.422,1.835 10.327,2.307L11.974,0.66L12.681,1.367L1.367,12.681L0.66,11.974L2.067,10.567ZM9.062,3.572C8.459,3.209 7.753,3 6.999,3C4.79,3 2.999,4.791 2.999,6.999C2.999,7.754 3.208,8.46 3.572,9.062L5.078,7.556C5.027,7.379 5,7.193 5,7C5,5.895 5.895,5 7,5C7.193,5 7.379,5.027 7.556,5.078L9.062,3.572ZM3.688,11.7L4.952,10.436C5.551,10.794 6.251,10.999 6.999,10.999C9.208,10.999 10.998,9.208 10.998,6.999C10.998,6.251 10.793,5.551 10.435,4.952L11.945,3.443C13.004,4.406 13.509,5.365 13.509,5.365C14.151,6.268 14.177,7.753 13.509,8.635C13.509,8.635 11.474,12.5 7,12.5C5.69,12.5 4.589,12.169 3.688,11.7ZM6.461,8.927L8.927,6.461C8.974,6.633 9,6.813 9,7C9,8.105 8.105,9 7,9C6.813,9 6.633,8.974 6.461,8.927Z" style="fill:rgb(213,213,213);"/>
            </g>
        </g>
    </g>
</svg>
