<svg width="20" height="20" viewBox="0 0 20 20" fill="none" xmlns="http://www.w3.org/2000/svg">
<path fill-rule="evenodd" clip-rule="evenodd" d="M16.5836 6.80634L16.5883 12.3488C16.5836 12.7602 16.4168 13.1564 16.1243 13.4489C15.8329 13.7403 15.4366 13.9071 15.0242 13.9129L9.4828 13.9071C8.84676 13.9071 8.27848 13.5266 8.03866 12.9426C7.79884 12.3587 7.92918 11.6966 8.37754 11.2482L9.37332 10.2525C9.10743 10.0387 8.76855 9.83539 8.36711 9.66334C8.24772 9.6159 8.12729 9.5695 8.00217 9.52779C7.85097 9.49129 7.83064 9.45949 7.63722 9.42352C7.32441 9.36096 7.06895 9.33489 6.77126 9.30934C6.19829 9.28797 5.60916 9.36617 5.06696 9.533C4.51954 9.70505 4.02947 9.96572 3.63324 10.2368C3.24744 10.5079 2.93985 10.8051 2.76259 10.9824C2.66874 11.0658 2.5749 11.2013 2.52277 11.2639C2.46542 11.3317 2.43414 11.3734 2.43414 11.3734C2.10047 11.78 1.4957 11.8426 1.08905 11.5089C0.744959 11.2274 0.645902 10.7634 0.817948 10.3828C0.817948 10.3828 0.838802 10.3307 0.875296 10.2525C0.922218 10.1638 0.948286 10.0648 1.05256 9.87709C1.25588 9.49651 1.5322 9.03251 1.97013 8.50073C2.40807 7.97938 2.9972 7.4111 3.73282 6.92573C4.47262 6.4466 5.35892 6.05038 6.30778 5.81056C6.77178 5.7115 7.28791 5.62287 7.73106 5.5968C7.91354 5.57073 8.26805 5.57073 8.48181 5.57595C8.72684 5.58116 8.96145 5.5968 9.2018 5.61713C10.1449 5.71671 11.0208 5.96696 11.735 6.27456C12.1469 6.4466 12.5066 6.6395 12.809 6.81676L13.9247 5.70107C14.3731 5.25271 15.0352 5.12237 15.6191 5.36219C16.203 5.60202 16.5836 6.17029 16.5836 6.80634Z" fill="white"/>
</svg>
