<?xml version="1.0" encoding="UTF-8" standalone="no"?>
<!DOCTYPE svg PUBLIC "-//W3C//DTD SVG 1.1//EN" "http://www.w3.org/Graphics/SVG/1.1/DTD/svg11.dtd">
<svg width="100%" height="100%" viewBox="0 0 49 52" version="1.1" xmlns="http://www.w3.org/2000/svg" xmlns:xlink="http://www.w3.org/1999/xlink" xml:space="preserve" xmlns:serif="http://www.serif.com/" style="fill-rule:evenodd;clip-rule:evenodd;">
    <g id="Page-1" transform="matrix(1,0,0,1,5,2)">
        <g transform="matrix(1,0,0,1,-5.1,-1)">
            <circle cx="24" cy="23.9" r="19.9" style="fill:rgb(91,251,132);"/>
        </g>
        <g id="Desktop---1280x720" transform="matrix(0.577154,0,0,0.577154,-351.452713,-190.914782)">
            <g id="Step-3---Altering-Suggested-Trim" transform="matrix(1,0,0,1,0,42)">
                <g id="Play---Record---Stop" serif:id="Play-/-Record-/-Stop" transform="matrix(1,0,0,1,623,307)">
                    <g id="play" transform="matrix(-0,1,-1,-0,43.851787,0.153525)">
                        <path id="path-1" d="M17.221,8.345C19.777,4.086 23.923,4.093 26.475,8.345L40.152,31.141C42.707,35.399 40.749,38.852 35.773,38.852L7.923,38.852C2.95,38.852 0.993,35.393 3.544,31.141L17.221,8.345Z" style="fill:white;stroke:white;stroke-width:1px;"/>
                    </g>
                </g>
            </g>
        </g>
    </g>
</svg>
