<svg width="20" height="20" viewBox="0 0 20 20" fill="none" xmlns="http://www.w3.org/2000/svg">
<path fill-rule="evenodd" clip-rule="evenodd" d="M3.41639 6.80634L3.4117 12.3488C3.4164 12.7602 3.58323 13.1564 3.87571 13.4489C4.16714 13.7403 4.56337 13.9071 4.97576 13.9129L10.5172 13.9071C11.1532 13.9071 11.7215 13.5266 11.9613 12.9426C12.2012 12.3587 12.0708 11.6966 11.6225 11.2482L10.6267 10.2525C10.8926 10.0387 11.2314 9.83539 11.6329 9.66334C11.7523 9.6159 11.8727 9.5695 11.9978 9.52779C12.149 9.49129 12.1694 9.45949 12.3628 9.42352C12.6756 9.36096 12.9311 9.33489 13.2287 9.30934C13.8017 9.28797 14.3908 9.36617 14.933 9.533C15.4805 9.70505 15.9705 9.96572 16.3668 10.2368C16.7526 10.5079 17.0602 10.8051 17.2374 10.9824C17.3313 11.0658 17.4251 11.2013 17.4772 11.2639C17.5346 11.3317 17.5659 11.3734 17.5659 11.3734C17.8995 11.78 18.5043 11.8426 18.9109 11.5089C19.255 11.2274 19.3541 10.7634 19.1821 10.3828C19.1821 10.3828 19.1612 10.3307 19.1247 10.2525C19.0778 10.1638 19.0517 10.0648 18.9474 9.87709C18.7441 9.49651 18.4678 9.03251 18.0299 8.50073C17.5919 7.97938 17.0028 7.4111 16.2672 6.92573C15.5274 6.4466 14.6411 6.05038 13.6922 5.81056C13.2282 5.7115 12.7121 5.62287 12.2689 5.5968C12.0865 5.57073 11.7319 5.57073 11.5182 5.57595C11.2732 5.58116 11.0385 5.5968 10.7982 5.61713C9.85508 5.71671 8.97921 5.96696 8.26496 6.27456C7.85309 6.4466 7.49336 6.6395 7.19098 6.81676L6.07528 5.70107C5.62692 5.25271 4.96481 5.12237 4.38089 5.36219C3.79698 5.60202 3.41639 6.17029 3.41639 6.80634Z" fill="white"/>
</svg>
