<?xml version="1.0" encoding="UTF-8" standalone="no"?>
<!DOCTYPE svg PUBLIC "-//W3C//DTD SVG 1.1//EN" "http://www.w3.org/Graphics/SVG/1.1/DTD/svg11.dtd">
<svg width="100%" height="100%" viewBox="0 0 300 300" version="1.1" xmlns="http://www.w3.org/2000/svg" xmlns:xlink="http://www.w3.org/1999/xlink" xml:space="preserve" xmlns:serif="http://www.serif.com/" style="fill-rule:evenodd;clip-rule:evenodd;stroke-linejoin:round;stroke-miterlimit:2;">
    <g transform="matrix(1,0,0,1,150,150)">
        <g transform="matrix(1,0,0,1,-150,-150)">
            <g transform="matrix(0.292969,0,0,0.292969,0,0)">
                <path d="M834.645,359.872L520.508,192.154C517.998,190.814 514.979,190.814 512.469,192.154L198.336,359.876L512.469,527.595C514.979,528.934 517.998,528.934 520.508,527.595L834.641,359.872L834.645,359.872ZM560.7,116.877L888.934,292.126C926.349,312.102 940.484,358.63 920.508,396.045C913.344,409.464 902.353,420.457 888.934,427.622L560.7,602.871C533.098,617.609 499.879,617.609 472.277,602.871L144.043,427.622C106.628,407.646 92.493,361.118 112.469,323.703C119.633,310.284 130.625,299.291 144.043,292.126L472.277,116.877C499.879,102.139 533.098,102.139 560.7,116.877ZM771.307,572.681L911.347,647.445C922.448,653.371 929.407,664.974 929.407,677.557C929.407,690.141 922.448,701.744 911.347,707.669L534.148,909.056C519.093,917.095 500.974,917.095 485.918,909.056L108.719,707.669C97.618,701.744 90.659,690.141 90.659,677.557C90.659,664.974 97.618,653.371 108.719,647.445L249.041,572.527L462.089,686.276C492.199,702.352 528.435,702.352 558.545,686.276L771.307,572.681Z" style="fill:white;fill-rule:nonzero;"/>
            </g>
        </g>
    </g>
</svg>
