<?xml version="1.0" encoding="UTF-8" standalone="no"?>
<!DOCTYPE svg PUBLIC "-//W3C//DTD SVG 1.1//EN" "http://www.w3.org/Graphics/SVG/1.1/DTD/svg11.dtd">
<svg width="100%" height="100%" viewBox="0 0 300 300" version="1.1" xmlns="http://www.w3.org/2000/svg" xmlns:xlink="http://www.w3.org/1999/xlink" xml:space="preserve" xmlns:serif="http://www.serif.com/" style="fill-rule:evenodd;clip-rule:evenodd;stroke-linecap:round;stroke-linejoin:round;">
    <g transform="matrix(18.75,0,0,18.75,142.5,158.5)">
        <g transform="matrix(1,0,0,1,-10,-10)">
            <g id="Page-1">
                <g id="backdrop-library">
                    <g id="backdrop-lib-icon" transform="matrix(1,0,0,1,3.85,4.65)">
                        <path id="Shape" d="M12.294,8.131L9.836,5.598C9.484,5.236 8.899,5.175 8.489,5.537L5.445,8.01C4.976,8.372 4.332,8.312 3.981,7.829L3.688,7.467C3.337,6.985 2.635,6.924 2.225,7.286L0,9.156C0,10.008 0.691,10.699 1.543,10.699L10.353,10.699C11.458,10.699 12.353,9.803 12.353,8.699L12.353,8.131L12.294,8.131Z" style="fill:white;stroke:white;stroke-width:1.5px;"/>
                        <path id="Rectangle" d="M12.353,3.529L12.353,8.824C12.353,9.798 11.563,10.588 10.588,10.588L1.765,10.588C0.79,10.588 0,9.798 0,8.824L0,1.765C-0,0.79 0.79,0 1.765,0L8.824,0" style="fill:none;stroke:white;stroke-width:1.5px;stroke-linejoin:miter;"/>
                    </g>
                    <g id="Combined-Shape">
                        <path id="path-1" d="M16.897,3.985L17.559,3.985C17.924,3.985 18.221,4.282 18.221,4.647C18.221,5.013 17.924,5.309 17.559,5.309L16.897,5.309L16.897,5.971C16.897,6.336 16.601,6.632 16.235,6.632C15.87,6.632 15.574,6.336 15.574,5.971L15.574,5.309L14.912,5.309C14.546,5.309 14.25,5.013 14.25,4.647C14.25,4.282 14.546,3.985 14.912,3.985L15.574,3.985L15.574,3.324C15.574,2.958 15.87,2.662 16.235,2.662C16.601,2.662 16.897,2.958 16.897,3.324L16.897,3.985Z" style="fill:white;"/>
                        <path d="M16.947,3.935L17.559,3.935C17.952,3.935 18.271,4.254 18.271,4.647C18.271,5.04 17.952,5.359 17.559,5.359L16.947,5.309L16.947,5.971C16.947,6.364 16.628,6.682 16.235,6.682C15.842,6.682 15.524,6.364 15.524,5.971L15.574,5.359L14.912,5.359C14.519,5.359 14.2,5.04 14.2,4.647C14.2,4.254 14.519,3.935 14.912,3.935L15.524,3.985L15.524,3.324C15.524,2.93 15.842,2.612 16.235,2.612C16.628,2.612 16.947,2.93 16.947,3.324L16.947,3.935Z" style="fill:none;stroke:white;stroke-width:0.1px;stroke-linecap:butt;stroke-linejoin:miter;"/>
                    </g>
                </g>
            </g>
        </g>
    </g>
</svg>
