<?xml version="1.0" encoding="UTF-8" standalone="no"?>
<!DOCTYPE svg PUBLIC "-//W3C//DTD SVG 1.1//EN" "http://www.w3.org/Graphics/SVG/1.1/DTD/svg11.dtd">
<svg width="100%" height="100%" viewBox="0 0 322 258" version="1.1" xmlns="http://www.w3.org/2000/svg" xmlns:xlink="http://www.w3.org/1999/xlink" xml:space="preserve" xmlns:serif="http://www.serif.com/" style="fill-rule:evenodd;clip-rule:evenodd;stroke-linejoin:round;stroke-miterlimit:2;">
    <g transform="matrix(1,0,0,1,-1,-24)">
        <g transform="matrix(0.858667,0,0,0.858667,162,152.8)">
            <g transform="matrix(1,0,0,1,-187.5,-150)">
                <g transform="matrix(0.474378,0,0,0.418802,-108.877013,-64.102358)">
                    <path d="M526,780L380.8,780C361.6,780 346,764.4 346,745.2L346,267.8C346,248.6 361.6,233 380.8,233L799.175,233C818.375,233 833.975,248.6 833.975,267.8L833.975,413C833.975,431.8 849.175,447 867.975,447C886.775,447 901.975,431.8 901.975,413L901.975,234.1C901.975,195.9 870.975,165 832.875,165L347.1,165C308.9,165 278,196 278,234.1L278,778.8C278,817 309,847.9 347.1,847.9L526,847.9C544.8,847.9 560,832.7 560,813.9C560,795.2 544.8,780 526,780Z" style="fill:white;fill-rule:nonzero;"/>
                </g>
                <g transform="matrix(0.474378,0,-0,0.418802,-132.877013,-64.102358)">
                    <path d="M950.9,654.8L817.1,521C803.8,507.7 782.3,507.7 769,521C755.7,534.3 755.7,555.8 769,569.1L844.9,645L659.404,645C640.604,645 625.404,660.2 625.404,679C625.404,697.8 640.604,713 659.404,713L844.7,713L769,788.7C755.7,802 755.7,823.5 769,836.8C782.3,850.1 803.8,850.1 817.1,836.8L948.7,705.2C956.2,699 961,689.6 961,679.1C961,669.5 957.1,661 950.9,654.8Z" style="fill:white;fill-rule:nonzero;"/>
                </g>
            </g>
        </g>
    </g>
</svg>
