<?xml version="1.0" encoding="UTF-8" standalone="no"?>
<!DOCTYPE svg PUBLIC "-//W3C//DTD SVG 1.1//EN" "http://www.w3.org/Graphics/SVG/1.1/DTD/svg11.dtd">
<svg width="100%" height="100%" viewBox="0 0 300 300" version="1.1" xmlns="http://www.w3.org/2000/svg" xmlns:xlink="http://www.w3.org/1999/xlink" xml:space="preserve" xmlns:serif="http://www.serif.com/" style="fill-rule:evenodd;clip-rule:evenodd;stroke-linejoin:round;stroke-miterlimit:2;">
    <g transform="matrix(0.783333,0,0,0.783333,150.5,150.5)">
        <g transform="matrix(1,0,0,1,-150,-150)">
            <g transform="matrix(0.292969,0,0,0.292969,0,0)">
                <path d="M972.8,460.8C942.08,460.8 921.6,440.32 921.6,409.6L921.6,153.6C921.6,122.88 901.12,102.4 870.4,102.4L153.6,102.4C122.88,102.4 102.4,122.88 102.4,153.6L102.4,870.4C102.4,901.12 122.88,921.6 153.6,921.6L409.6,921.6C440.32,921.6 460.8,942.08 460.8,972.8C460.8,1003.52 440.32,1024 409.6,1024L102.4,1024C46.08,1024 0,977.92 0,921.6L0,102.4C0,46.08 46.08,0 102.4,0L921.6,0C977.92,0 1024,46.08 1024,102.4L1024,409.6C1024,440.32 1003.52,460.8 972.8,460.8Z" style="fill:white;fill-rule:nonzero;"/>
            </g>
            <g transform="matrix(0.292969,0,0,0.292969,0,0)">
                <path d="M665.6,768L972.8,768C1003.52,768 1024,788.48 1024,819.2C1024,849.92 1003.52,870.4 972.8,870.4L665.6,870.4C634.88,870.4 614.4,849.92 614.4,819.2C614.4,788.48 634.88,768 665.6,768ZM819.2,614.4C849.92,614.4 870.4,634.88 870.4,665.6L870.4,972.8C870.4,1003.52 849.92,1024 819.2,1024C788.48,1024 768,1003.52 768,972.8L768,665.6C768,634.88 788.48,614.4 819.2,614.4Z" style="fill:white;fill-rule:nonzero;"/>
            </g>
        </g>
    </g>
</svg>
