<?xml version="1.0" encoding="UTF-8" standalone="no"?>
<!DOCTYPE svg PUBLIC "-//W3C//DTD SVG 1.1//EN" "http://www.w3.org/Graphics/SVG/1.1/DTD/svg11.dtd">
<svg width="100%" height="100%" viewBox="0 0 300 300" version="1.1" xmlns="http://www.w3.org/2000/svg" xmlns:xlink="http://www.w3.org/1999/xlink" xml:space="preserve" xmlns:serif="http://www.serif.com/" style="fill-rule:evenodd;clip-rule:evenodd;stroke-linejoin:round;stroke-miterlimit:2;">
    <g transform="matrix(0.956667,0,0,0.956667,150,150)">
        <g transform="matrix(1,0,0,1,-150,-150)">
            <g transform="matrix(0.292969,0,0,0.292969,0,0)">
                <path d="M769.843,82.688L254.157,82.688C158.891,82.856 80.552,161.195 80.384,256.461L80.384,772.147C80.524,867.432 158.872,945.803 254.157,945.971L769.843,945.971C865.128,945.803 943.476,867.432 943.616,772.147L943.616,256.461C943.448,161.195 865.109,82.856 769.843,82.688ZM882.176,256.461L882.176,354.253L672.256,354.253L672.256,144.333L770.048,144.333C831.454,144.611 881.898,195.055 882.176,256.461ZM882.176,612.966L672.256,612.966L672.256,415.693L882.176,415.693L882.176,612.966ZM141.824,415.693L351.744,415.693L351.744,612.966L141.824,612.966L141.824,415.693ZM413.184,415.693L610.458,415.693L610.458,612.966L413.338,612.966L413.184,415.693ZM610.458,144.333L610.458,354.253L413.338,354.253L413.338,144.333L610.458,144.333ZM254.003,144.333L351.898,144.333L351.898,354.253L141.978,354.253L141.978,256.461C142.145,194.958 192.654,144.379 254.157,144.128L254.003,144.333ZM141.824,772.147L141.824,674.406L351.744,674.406L351.744,884.326L254.157,884.326C192.654,884.159 142.075,833.65 141.824,772.147ZM413.184,884.531L413.184,674.611L610.458,674.611L610.458,884.531L413.184,884.531ZM769.843,884.531L671.898,884.531L671.898,674.611L881.818,674.611L881.818,772.352C881.568,833.72 831.21,884.169 769.843,884.531Z" style="fill:white;fill-rule:nonzero;"/>
            </g>
        </g>
    </g>
</svg>
