<?xml version="1.0" encoding="UTF-8" standalone="no"?>
<!DOCTYPE svg PUBLIC "-//W3C//DTD SVG 1.1//EN" "http://www.w3.org/Graphics/SVG/1.1/DTD/svg11.dtd">
<svg width="100%" height="100%" viewBox="0 0 349 349" version="1.1" xmlns="http://www.w3.org/2000/svg" xmlns:xlink="http://www.w3.org/1999/xlink" xml:space="preserve" xmlns:serif="http://www.serif.com/" style="fill-rule:evenodd;clip-rule:evenodd;stroke-linejoin:round;stroke-miterlimit:2;">
    <g transform="matrix(1,0,0,1,15,26)">
        <g transform="matrix(1.163333,0,0,1.163333,159.5,148.5)">
            <g transform="matrix(1,0,0,1,-150,-150)">
                <g transform="matrix(0.292969,0,0,0.292969,0,0)">
                    <path d="M366.336,377.771L155.136,588.971L376.747,810.667L426.667,810.624L426.667,810.581L476.629,810.581L637.867,649.344L366.336,377.813L366.336,377.771ZM426.667,317.44L698.197,588.971L818.859,468.309L547.328,196.779L426.667,317.44ZM597.333,810.539L896,810.539L896,895.872L512,895.872L341.419,895.957L64.64,619.136C48.095,602.586 48.095,575.355 64.64,558.805L517.12,106.283C533.67,89.738 560.901,89.738 577.451,106.283L909.355,438.144C925.899,454.694 925.899,481.925 909.355,498.475L597.333,810.539Z" style="fill:white;fill-rule:nonzero;"/>
                </g>
            </g>
        </g>
    </g>
</svg>
