<?xml version="1.0" encoding="UTF-8" standalone="no"?>
<!DOCTYPE svg PUBLIC "-//W3C//DTD SVG 1.1//EN" "http://www.w3.org/Graphics/SVG/1.1/DTD/svg11.dtd">
<svg width="100%" height="100%" viewBox="0 0 300 300" version="1.1" xmlns="http://www.w3.org/2000/svg" xmlns:xlink="http://www.w3.org/1999/xlink" xml:space="preserve" xmlns:serif="http://www.serif.com/" style="fill-rule:evenodd;clip-rule:evenodd;stroke-linejoin:round;stroke-miterlimit:2;">
    <g transform="matrix(0.926667,0,0,0.926667,150,150)">
        <g transform="matrix(1,0,0,1,-150,-150)">
            <g transform="matrix(0.292969,0,0,0.292969,0,0)">
                <path d="M429.88,511L429.88,511C429.88,557.498 468.142,595.76 514.64,595.76C561.138,595.76 599.4,557.498 599.4,511L599.4,511C599.4,464.502 561.138,426.24 514.64,426.24C468.142,426.24 429.88,464.502 429.88,511Z" style="fill:white;fill-rule:nonzero;"/>
            </g>
            <g transform="matrix(0.292969,0,0,0.292969,0,0)">
                <path d="M661.36,190.85L548.54,78C540.021,69.471 528.586,64.468 516.54,64C515.33,63.91 514.11,63.85 512.88,63.85C500.038,63.883 487.71,68.968 478.58,78L365.77,190.85C347.152,209.469 347.152,240.111 365.77,258.73C384.389,277.348 415.031,277.348 433.65,258.73L464.86,227.52L464.86,342.74C464.86,369.072 486.528,390.74 512.86,390.74C539.192,390.74 560.86,369.072 560.86,342.74L560.86,226.11L593.47,258.73C602.469,267.731 614.688,272.793 627.415,272.793C640.142,272.793 652.361,267.731 661.36,258.73C679.978,240.111 679.978,209.469 661.36,190.85ZM364.23,832.86L477.05,945.67C485.567,954.202 497.003,959.205 509.05,959.67C510.26,959.76 511.48,959.82 512.71,959.82C525.55,959.79 537.875,954.704 547,945.67L659.83,832.86C678.448,814.241 678.448,783.599 659.83,764.98C650.831,755.979 638.612,750.917 625.885,750.917C613.158,750.917 600.939,755.979 591.94,764.98L560.73,796.18L560.73,681C560.73,654.668 539.062,633 512.73,633C486.398,633 464.73,654.668 464.73,681L464.73,797.59L432.12,765C423.121,755.999 410.902,750.937 398.175,750.937C385.448,750.937 373.229,755.999 364.23,765C345.625,783.617 345.625,814.243 364.23,832.86ZM831.12,663.76L943.93,551C952.459,542.481 957.461,531.046 957.93,519C958.02,517.79 958.08,516.57 958.08,515.33C958.065,502.475 952.977,490.132 943.93,481L831.12,368.17C822.121,359.169 809.902,354.107 797.175,354.107C784.448,354.107 772.229,359.169 763.23,368.17C744.612,386.789 744.612,417.431 763.23,436.05L794.44,467.26L679.23,467.26C652.898,467.26 631.23,488.928 631.23,515.26C631.23,541.592 652.898,563.26 679.23,563.26L795.85,563.26L763.23,595.88C744.612,614.499 744.612,645.141 763.23,663.76C772.229,672.761 784.448,677.823 797.175,677.823C809.902,677.823 822.121,672.761 831.12,663.76ZM187.88,366.64L75.06,479.45C66.528,487.967 61.525,499.403 61.06,511.45C60.96,512.66 60.9,513.88 60.9,515.12C60.936,527.957 66.03,540.276 75.07,549.39L187.88,662.23C206.499,680.848 237.141,680.848 255.76,662.23C274.378,643.611 274.378,612.969 255.76,594.35L224.55,563.14L339.76,563.14C366.092,563.14 387.76,541.472 387.76,515.14C387.76,488.808 366.092,467.14 339.76,467.14L223.14,467.14L255.76,434.52C274.378,415.901 274.378,385.259 255.76,366.64C237.141,348.022 206.499,348.022 187.88,366.64Z" style="fill:white;fill-rule:nonzero;"/>
            </g>
        </g>
    </g>
</svg>
