<?xml version="1.0" encoding="UTF-8" standalone="no"?>
<!DOCTYPE svg PUBLIC "-//W3C//DTD SVG 1.1//EN" "http://www.w3.org/Graphics/SVG/1.1/DTD/svg11.dtd">
<svg width="100%" height="100%" viewBox="0 0 300 300" version="1.1" xmlns="http://www.w3.org/2000/svg" xmlns:xlink="http://www.w3.org/1999/xlink" xml:space="preserve" xmlns:serif="http://www.serif.com/" style="fill-rule:evenodd;clip-rule:evenodd;stroke-linejoin:round;stroke-miterlimit:2;">
    <g transform="matrix(1,0,0,1,3,1)">
        <g transform="matrix(1,0,0,1,147,149)">
            <g transform="matrix(1,0,0,1,-150,-150)">
                <g transform="matrix(0.292969,0,0,0.292969,0,0)">
                    <path d="M806.4,108.8L480,108.8C275.2,108.8 108.8,275.2 108.8,480L108.8,542.72C108.8,747.52 275.2,913.92 480,913.92L542.72,913.92C747.52,913.92 913.92,747.52 913.92,542.72L913.92,217.6C915.2,157.44 866.56,108.8 806.4,108.8ZM435.2,528.64C433.92,554.24 413.44,576 387.84,576C362.24,576 340.48,555.52 340.48,528.64L340.48,436.48C340.48,410.88 360.96,389.12 387.84,389.12C414.72,389.12 435.2,409.6 435.2,436.48L435.2,528.64ZM682.24,528.64C682.24,554.24 661.76,576 634.88,576C609.28,576 587.52,555.52 587.52,528.64L587.52,436.48C587.52,410.88 608,389.12 634.88,389.12C660.48,389.12 682.24,409.6 682.24,436.48L682.24,528.64Z" style="fill:white;fill-rule:nonzero;"/>
                </g>
            </g>
        </g>
    </g>
</svg>
