<?xml version="1.0" encoding="UTF-8" standalone="no"?>
<!DOCTYPE svg PUBLIC "-//W3C//DTD SVG 1.1//EN" "http://www.w3.org/Graphics/SVG/1.1/DTD/svg11.dtd">
<svg width="100%" height="100%" viewBox="0 0 326 326" version="1.1" xmlns="http://www.w3.org/2000/svg" xmlns:xlink="http://www.w3.org/1999/xlink" xml:space="preserve" xmlns:serif="http://www.serif.com/" style="fill-rule:evenodd;clip-rule:evenodd;stroke-linejoin:round;stroke-miterlimit:2;">
    <g transform="matrix(1,0,0,1,13,13)">
        <g transform="matrix(1.086667,0,0,1.086667,150,150)">
            <g transform="matrix(1,0,0,1,-150,-150)">
                <g transform="matrix(0.292969,0,0,0.292969,0,0)">
                    <path d="M439.168,353.835C455.718,337.29 482.949,337.29 499.499,353.835L597.333,451.669L695.168,353.835C703.205,345.514 714.289,340.809 725.858,340.809C749.264,340.809 768.524,360.069 768.524,383.476C768.524,395.044 763.82,406.129 755.499,414.165L657.664,512L755.499,609.835C763.179,617.787 767.476,628.42 767.476,639.476C767.476,662.882 748.215,682.142 724.809,682.142C713.754,682.142 703.12,677.846 695.168,670.165L597.333,572.331L499.499,670.165C491.547,677.846 480.913,682.142 469.858,682.142C446.451,682.142 427.191,662.882 427.191,639.476C427.191,628.42 431.488,617.787 439.168,609.835L537.003,512L439.168,414.165C422.623,397.616 422.623,370.384 439.168,353.835Z" style="fill:white;fill-rule:nonzero;"/>
                </g>
                <g transform="matrix(0.292969,0,0,0.292969,0,0)">
                    <path d="M405.248,128L735.616,128C769.963,128 798.336,128 821.376,129.877C845.397,131.84 867.456,136.064 888.149,146.603C920.256,162.962 946.371,189.077 962.731,221.184C973.269,241.92 977.493,263.936 979.456,287.915C981.333,311.04 981.333,339.371 981.333,373.675L981.333,650.325C981.333,684.629 981.333,713.003 979.456,736.085C977.493,760.064 973.269,782.123 962.731,802.816C946.371,834.923 920.256,861.038 888.149,877.397C867.456,887.936 845.397,892.16 821.419,894.123C798.336,896 769.963,896 735.659,896L405.333,896C384.555,896 366.251,896.043 348.843,891.093C333.574,886.736 319.25,879.574 306.603,869.973C292.224,859.051 281.259,844.373 268.8,827.733L266.24,824.32L81.92,578.56L79.573,575.445C71.125,564.267 60.501,550.272 56.107,533.717C52.361,519.482 52.361,504.518 56.107,490.283C60.501,473.771 71.125,459.733 79.573,448.555L81.92,445.44L266.24,199.68L268.8,196.267C281.259,179.627 292.224,164.992 306.645,154.027C319.293,144.428 333.618,137.266 348.885,132.907C366.208,128 384.512,128 405.248,128ZM409.6,213.333C382.08,213.333 376.661,213.76 372.267,214.997C367.177,216.45 362.403,218.838 358.187,222.037C354.56,224.768 351.019,228.864 334.507,250.88L150.187,496.64C146.331,501.644 142.631,506.767 139.093,512C142.631,517.234 146.33,522.356 150.187,527.36L334.507,773.12C351.019,795.136 354.56,799.232 358.229,802.005C362.411,805.205 367.189,807.552 372.309,809.045C376.661,810.325 382.123,810.667 409.6,810.667L733.867,810.667C770.432,810.667 795.264,810.667 814.464,809.088C833.152,807.552 842.752,804.779 849.408,801.408C865.468,793.217 878.526,780.144 886.699,764.075C890.112,757.419 892.885,747.861 894.379,729.131C896,709.973 896,685.099 896,648.533L896,375.467C896,338.944 896,314.069 894.379,294.869C892.885,276.181 890.112,266.624 886.699,259.925C878.519,243.872 865.461,230.814 849.408,222.635C842.752,219.221 833.195,216.491 814.464,214.955C795.264,213.333 770.432,213.333 733.867,213.333L409.6,213.333Z" style="fill:white;fill-rule:nonzero;"/>
                </g>
            </g>
        </g>
    </g>
</svg>
