<?xml version="1.0" encoding="UTF-8" standalone="no"?>
<!DOCTYPE svg PUBLIC "-//W3C//DTD SVG 1.1//EN" "http://www.w3.org/Graphics/SVG/1.1/DTD/svg11.dtd">
<svg width="100%" height="100%" viewBox="0 0 300 300" version="1.1" xmlns="http://www.w3.org/2000/svg" xmlns:xlink="http://www.w3.org/1999/xlink" xml:space="preserve" xmlns:serif="http://www.serif.com/" style="fill-rule:evenodd;clip-rule:evenodd;stroke-linejoin:round;stroke-miterlimit:2;">
    <g transform="matrix(1,0,0,1,150,150)">
        <g transform="matrix(1,0,0,1,-150,-150)">
            <g transform="matrix(0.292969,0,0,0.292969,0,0)">
                <path d="M386.642,816.64C404.899,816.64 419.922,831.663 419.922,849.92C419.922,868.177 404.899,883.2 386.642,883.2L190.925,883.2C140.621,883.2 99.84,842.419 99.84,792.115L99.84,190.925C99.84,140.621 140.621,99.84 190.925,99.84L792.115,99.84C842.419,99.84 883.2,140.621 883.2,190.925L883.2,420.004C883.2,438.261 868.177,453.284 849.92,453.284C831.663,453.284 816.64,438.261 816.64,420.004L816.64,190.925C816.64,177.471 805.569,166.4 792.115,166.4L190.925,166.4C177.471,166.4 166.4,177.471 166.4,190.925L166.4,792.115C166.4,805.569 177.471,816.64 190.925,816.64L386.642,816.64Z" style="fill:white;fill-rule:nonzero;"/>
            </g>
            <g transform="matrix(0.292969,0,0,0.292969,0,0)">
                <path d="M910.802,641.249L482.995,408.156C467.082,399.36 457.626,406.999 461.778,424.131L568.556,901.893C572.703,919.485 583.316,921.334 593.234,906.522C593.234,906.522 646.968,822.963 691.707,771.574L791.342,908.836C797.332,917.171 809.098,918.789 817.403,913.004L860.989,880.594C869.289,874.112 871.137,862.31 865.137,853.975L765.507,717.404C824.55,690.319 908.268,666.716 908.268,666.716C924.872,660.695 926.254,649.585 910.802,641.249Z" style="fill:white;fill-rule:nonzero;"/>
            </g>
        </g>
    </g>
</svg>
