<?xml version="1.0" encoding="UTF-8" standalone="no"?>
<!DOCTYPE svg PUBLIC "-//W3C//DTD SVG 1.1//EN" "http://www.w3.org/Graphics/SVG/1.1/DTD/svg11.dtd">
<svg width="100%" height="100%" viewBox="0 0 283 283" version="1.1" xmlns="http://www.w3.org/2000/svg" xmlns:xlink="http://www.w3.org/1999/xlink" xml:space="preserve" xmlns:serif="http://www.serif.com/" style="fill-rule:evenodd;clip-rule:evenodd;stroke-linejoin:round;stroke-miterlimit:2;">
    <g transform="matrix(1,0,0,1,-7,-12)">
        <g transform="matrix(11.791667,0,0,11.791667,148.5,153.5)">
            <g transform="matrix(1,0,0,1,-12,-12)">
                <path d="M19.56,17.65C17.848,20.008 15.123,21.428 12.21,21.48C12.197,21.48 12.183,21.481 12.17,21.481C11.451,21.481 10.859,20.889 10.859,20.17C10.859,19.466 11.426,18.881 12.13,18.86C14.159,18.719 16.01,17.638 17.13,15.94C18.231,14.322 18.482,12.265 17.8,10.43C17.449,9.58 16.884,8.836 16.16,8.27C15.434,7.727 14.58,7.382 13.68,7.27C11.966,7.079 10.252,7.654 9,8.84L10.74,11C10.846,11.11 10.906,11.257 10.906,11.41C10.906,11.734 10.639,12 10.316,12C10.314,12 10.312,12 10.31,12L2.7,12C2.694,12 2.687,12 2.681,12C2.352,12 2.081,11.729 2.081,11.4C2.081,11.35 2.087,11.299 2.1,11.25L3.81,3.83C3.889,3.588 4.116,3.424 4.371,3.424C4.538,3.424 4.698,3.495 4.81,3.62L6.48,5.72C8.643,3.946 11.471,3.191 14.23,3.65C15.747,3.92 17.168,4.582 18.35,5.57C19.509,6.565 20.385,7.848 20.89,9.29C21.841,12.124 21.343,15.251 19.56,17.65Z" style="fill:white;fill-rule:nonzero;"/>
            </g>
        </g>
    </g>
</svg>
