<?xml version="1.0" encoding="UTF-8"?>
<svg id="_图层_1" xmlns="http://www.w3.org/2000/svg" version="1.1" viewBox="0 0 60 40">
  <!-- Generator: Adobe Illustrator 29.0.1, SVG Export Plug-In . SVG Version: 2.1.0 Build 192)  -->
  <defs>
    <style>
      .st0 {
        fill: #a52324;
      }

      .st1 {
        fill: #ebc530;
      }

      .st2 {
        fill: #262524;
      }

      .st3 {
        fill: #fff;
      }

      .st4 {
        fill: #22252b;
      }
    </style>
  </defs>
  <rect class="st4" x="-17.1" y="-15.2" width="94" height="57"/>
  <g>
    <rect class="st1" x="11.6" y="12.7" width="36.7" height="18.5" rx="2.1" ry="2.1"/>
    <path class="st3" d="M23.5,18.6c0,2.8-2.2,5-5,5s-5-2.2-5-5,2.2-5,5-5,5,2.2,5,5"/>
    <path class="st2" d="M21.1,18.4c0,1.4-1.2,2.7-2.7,2.7s-2.7-1.2-2.7-2.7,1.2-2.7,2.7-2.7,2.7,1.2,2.7,2.7"/>
    <path class="st3" d="M46.5,18.6c0,2.8-2.2,5-5,5s-5-2.2-5-5,2.2-5,5-5,5,2.2,5,5"/>
    <path class="st2" d="M44.1,18.4c0,1.4-1.2,2.7-2.7,2.7s-2.7-1.2-2.7-2.7,1.2-2.7,2.7-2.7,2.7,1.2,2.7,2.7"/>
    <path class="st0" d="M20.1,27.6c0,3.1-2.5,5.6-5.6,5.6s-5.6-2.5-5.6-5.6,2.5-5.6,5.6-5.6,5.6,2.5,5.6,5.6"/>
    <path class="st0" d="M51.2,27.6c0,3.1-2.5,5.6-5.6,5.6s-5.6-2.5-5.6-5.6,2.5-5.6,5.6-5.6,5.6,2.5,5.6,5.6"/>
    <path class="st3" d="M20.5,8.5c0,.9-.5-.6-2.5-.6s-2.9,1.9-2.9.9,1.3-2.1,2.7-2.1,2.6,1.3,2.6,1.8"/>
    <path class="st3" d="M38.8,8.5c0,.9.5-.6,2.5-.6s2.9,1.9,2.9.9-1.3-2.1-2.7-2.1-2.6,1.3-2.6,1.8"/>
    <path class="st2" d="M34.6,25.7c-1.1,0-1.9-.4-2.6-.7-.6-.3-1.1-.5-1.7-.5s-1.1.3-1.7.5c-.7.4-1.4.7-2.6.7-1.9,0-2.9-1.7-2.9-1.8,0-.2,0-.4.2-.5s.4,0,.5.2c0,0,.8,1.3,2.2,1.3s1.6-.4,2.2-.6c.6-.3,1.3-.5,2.1-.5s1.4.3,2.1.5c.6.3,1.3.6,2.2.6,1.4,0,2.2-1.3,2.2-1.3,0-.2.4-.3.5-.2s.3.4.2.5c0,0-1.1,1.8-2.9,1.8"/>
  </g>
</svg>