<?xml version="1.0" standalone="no"?><!DOCTYPE svg PUBLIC "-//W3C//DTD SVG 1.1//EN" "http://www.w3.org/Graphics/SVG/1.1/DTD/svg11.dtd"><svg t="1769619118983" class="icon" viewBox="0 0 1024 1024" version="1.1" xmlns="http://www.w3.org/2000/svg" p-id="4864" xmlns:xlink="http://www.w3.org/1999/xlink" width="200" height="200"><path d="M341.333333 810.666667a128 128 0 0 1-128-128V341.333333a128 128 0 0 1 128-128 42.666667 42.666667 0 0 0 0-85.333333 213.333333 213.333333 0 0 0-213.333333 213.333333v341.333334a213.333333 213.333333 0 0 0 213.333333 213.333333 42.666667 42.666667 0 0 0 0-85.333333z m328.96-140.373334a42.666667 42.666667 0 0 0 0-60.586666L572.16 512l98.133333-97.706667a42.666667 42.666667 0 0 0-60.586666-60.586666L512 451.84l-97.706667-98.133333a42.666667 42.666667 0 0 0-60.586666 60.586666l98.133333 97.706667-98.133333 97.706667a42.666667 42.666667 0 0 0 0 60.586666 42.666667 42.666667 0 0 0 60.586666 0l97.706667-98.133333 97.706667 98.133333a42.666667 42.666667 0 0 0 60.586666 0zM682.666667 128a42.666667 42.666667 0 0 0 0 85.333333 128 128 0 0 1 128 128v341.333334a128 128 0 0 1-128 128 42.666667 42.666667 0 0 0 0 85.333333 213.333333 213.333333 0 0 0 213.333333-213.333333V341.333333a213.333333 213.333333 0 0 0-213.333333-213.333333z" p-id="4865"></path></svg>