<?xml version="1.0" encoding="UTF-8"?>
<svg id="_图层_1" data-name="图层_1" xmlns="http://www.w3.org/2000/svg" version="1.1" viewBox="0 0 200 200">
  <!-- Generator: Adobe Illustrator 29.0.1, SVG Export Plug-In . SVG Version: 2.1.0 Build 192)  -->
  <defs>
    <style>
      .st0 {
        fill: #b2b2b2;
      }
    </style>
  </defs>
  <path class="st0" d="M100,200C44.8,200,0,155.2,0,100S44.8,0,100,0s100,44.8,100,100-44.8,100-100,100ZM135.3,82.3c5-4.8,5.2-12.7.4-17.7-4.8-5-12.7-5.2-17.7-.4-.1.1-.3.3-.4.4l-17.7,17.7-17.7-17.7c-4.8-5-12.7-5.2-17.7-.4s-5.2,12.7-.4,17.7c.1.1.3.3.4.4l17.7,17.7-17.7,17.7c-5,4.8-5.2,12.7-.4,17.7s12.7,5.2,17.7.4c.1-.1.3-.3.4-.4l17.7-17.7,17.7,17.7c4.8,5,12.7,5.2,17.7.4,5-4.8,5.2-12.7.4-17.7-.1-.1-.3-.3-.4-.4l-17.7-17.7,17.7-17.7Z"/>
</svg>