<?xml version="1.0" encoding="UTF-8"?>
<svg id="_图层_1" data-name="图层_1" xmlns="http://www.w3.org/2000/svg" version="1.1" viewBox="0 0 200.78 200">
  <!-- Generator: Adobe Illustrator 29.0.1, SVG Export Plug-In . SVG Version: 2.1.0 Build 192)  -->
  <defs>
    <style>
      .st0 {
        fill: #fff;
      }
    </style>
  </defs>
  <path class="st0" d="M192.12,61.44c-5.05-11.87-12.26-22.55-21.44-31.73s-19.86-16.39-31.73-21.44C126.65,3.04,113.61.39,100.19.39s-26.45,2.65-38.75,7.88c-11.87,5.05-22.55,12.26-31.73,21.44s-16.39,19.86-21.44,31.73C3.04,73.74.39,86.78.39,100.19s2.65,26.45,7.88,38.75c5.05,11.87,12.26,22.55,21.44,31.73s19.86,16.39,31.73,21.44c12.3,5.22,25.34,7.88,38.75,7.88s26.45-2.65,38.75-7.88c11.87-5.05,22.55-12.26,31.73-21.44s16.39-19.86,21.44-31.73c5.22-12.3,7.88-25.34,7.88-38.75s-2.65-26.45-7.88-38.75ZM131.58,174.76c-9.96,4.23-20.53,6.37-31.38,6.37s-21.42-2.14-31.38-6.37c-9.65-4.11-18.32-9.98-25.77-17.41-7.45-7.45-13.29-16.1-17.41-25.77-4.23-9.96-6.37-20.53-6.37-31.38s2.14-21.42,6.37-31.38c4.11-9.65,9.98-18.32,17.41-25.77,7.45-7.45,16.1-13.29,25.77-17.41,9.96-4.23,20.53-6.37,31.38-6.37s21.42,2.14,31.38,6.37c9.65,4.11,18.32,9.98,25.77,17.41,7.45,7.45,13.29,16.1,17.41,25.77,4.23,9.96,6.37,20.53,6.37,31.38s-2.14,21.42-6.37,31.38c-4.11,9.65-9.98,18.32-17.41,25.77-7.45,7.43-16.12,13.29-25.77,17.41Z"/>
  <path class="st0" d="M93.14,157.97h14.56c1.62,0,2.92-1.31,2.92-2.92v-13.35c0-1.62-1.31-2.92-2.92-2.92h-14.56c-1.62,0-2.92,1.31-2.92,2.92v13.35c0,1.62,1.31,2.92,2.92,2.92ZM134.29,72.9c-.64-10.02-3.76-17.76-9.24-23.02-5.48-5.26-13.33-8.03-23.35-8.25h-.19c-11.44.43-20.33,3.8-26.41,9.98-6.06,6.18-9.36,15.2-9.79,26.82-.06,1.66,1.27,3.02,2.92,3.02h12.75c1.58,0,2.88-1.27,2.92-2.85.37-14.17,5.95-20.99,17.58-21.42h.25c9.55.41,14.39,5.26,15.15,15.22,0,.1.02.21,0,.31-.12,5.19-3.9,11.54-11.27,18.91-9.98,9.55-14.83,18.19-14.83,26.37v10.94c0,1.62,1.31,2.92,2.92,2.92h13.35c1.62,0,2.92-1.31,2.92-2.92v-12.75c0-2.22,1.54-6.39,8.83-13.7,10.25-9.82,15.46-19.73,15.46-29.42l.02-.18h0Z"/>
</svg>