<?xml version="1.0" encoding="UTF-8"?>
<svg id="_图层_1" data-name="图层_1" xmlns="http://www.w3.org/2000/svg" version="1.1" viewBox="0 0 200 200">
  <!-- Generator: Adobe Illustrator 29.0.1, SVG Export Plug-In . SVG Version: 2.1.0 Build 192)  -->
  <defs>
    <style>
      .st0 {
        fill: #fff;
      }
    </style>
  </defs>
  <path class="st0" d="M137.27,199.55H20.45c-10.45,0-18.64-8.64-18.64-18.64v-28.64c0-2.27.91-4.09,2.73-5.45,1.82-1.36,4.09-1.82,5.91-1.36,2.27.45,4.55.91,6.36.91,13.18,0,24.09-10.91,24.09-24.09s-10.91-24.09-24.09-24.09c-1.82,0-4.09.45-6.36.91-2.27.45-4.09,0-5.91-1.36s-2.73-3.18-2.73-5.45v-28.64c0-10.45,8.64-18.64,18.64-18.64h20.91c-.45-2.27-.45-4.55-.45-6.82C40.91,17.27,57.73.45,78.64.45s37.73,16.82,37.73,37.73c0,2.27,0,4.55-.45,6.82h20.91c10.45,0,18.64,8.64,18.64,18.64v20.91h4.09c20.91,0,37.73,16.82,37.73,37.73s-16.82,37.73-37.73,37.73h-4.09v20.91c.91,10-7.73,18.64-18.18,18.64h0ZM15.45,160v20.45c0,2.73,2.27,5,5,5h116.82c2.73,0,5-2.27,5-5v-29.55c0-2.27.91-4.55,2.73-5.45,1.82-1.36,4.09-1.36,6.36-.91,2.73.91,5.45,1.82,8.18,1.82,13.18,0,24.09-10.91,24.09-24.09s-10.91-24.09-24.09-24.09c-2.73,0-5.45.45-8.18,1.82-2.27.91-4.55.45-6.36-.91s-2.73-3.18-2.73-5.45v-30c0-2.73-2.27-5-5-5h-30.45c-2.27,0-4.55-1.36-5.91-3.18-1.36-1.82-1.36-4.55-.45-6.36,1.82-3.64,2.27-6.82,2.27-10.45,0-13.18-10.91-24.09-24.09-24.09s-24.09,10.91-24.09,24.09c0,3.64.91,7.27,2.27,10.45.91,2.27.91,4.55-.45,6.36s-3.64,3.18-5.91,3.18h-30c-2.73,0-5,2.27-5,5v20.45c21.36-.91,39.09,16.36,39.09,37.73,0,20.91-16.82,37.73-37.73,37.73-.45.45-.91.45-1.36.45h0Z"/>
</svg>