<?xml version="1.0" encoding="UTF-8" standalone="no"?>
<!DOCTYPE svg PUBLIC "-//W3C//DTD SVG 1.1//EN" "http://www.w3.org/Graphics/SVG/1.1/DTD/svg11.dtd">
<svg width="100%" height="100%" viewBox="0 0 48 48" version="1.1" xmlns="http://www.w3.org/2000/svg" xmlns:xlink="http://www.w3.org/1999/xlink" xml:space="preserve" xmlns:serif="http://www.serif.com/" style="fill-rule:evenodd;clip-rule:evenodd;stroke-linejoin:round;stroke-miterlimit:2;">
    <circle cx="24" cy="23.9" r="23.2" style="fill:rgb(91,251,132);fill-opacity:0.6;"/>
    <circle cx="24" cy="23.9" r="19.9" style="fill:rgb(91,251,132);"/>
    <g id="sound-library" transform="matrix(1.538462,0,0,1.538462,7.384615,9.307692)">
        <path id="Combined-Shape" d="M17.75,3.25L18.5,3.25C18.914,3.25 19.25,3.586 19.25,4C19.25,4.414 18.914,4.75 18.5,4.75L17.75,4.75L17.75,5.5C17.75,5.914 17.414,6.25 17,6.25C16.586,6.25 16.25,5.914 16.25,5.5L16.25,4.75L15.5,4.75C15.086,4.75 14.75,4.414 14.75,4C14.75,3.586 15.086,3.25 15.5,3.25L16.25,3.25L16.25,2.5C16.25,2.086 16.586,1.75 17,1.75C17.414,1.75 17.75,2.086 17.75,2.5L17.75,3.25ZM12.631,13.637C12.48,13.637 12.326,13.598 12.185,13.514C11.767,13.265 11.628,12.724 11.875,12.304C12.347,11.5 12.347,10.505 11.875,9.703C11.628,9.282 11.767,8.74 12.185,8.491C12.607,8.245 13.144,8.384 13.389,8.802C14.186,10.16 14.186,11.846 13.389,13.203C13.226,13.483 12.932,13.637 12.631,13.637ZM15.257,15.055C15.106,15.055 14.95,15.016 14.811,14.932C14.393,14.683 14.254,14.142 14.501,13.722C15.487,12.045 15.487,9.96 14.501,8.285C14.254,7.865 14.393,7.322 14.811,7.073C15.23,6.828 15.767,6.965 16.015,7.384C17.328,9.615 17.328,12.39 16.015,14.621C15.85,14.901 15.558,15.055 15.257,15.055ZM10.379,6.679L10.379,15.32C10.379,16.344 9.172,16.88 8.419,16.19L6.795,14.698C6.219,14.17 5.47,13.878 4.691,13.878L4.407,13.878C3.63,13.878 3,13.246 3,12.464L3,9.551C3,8.77 3.63,8.137 4.407,8.137L4.675,8.137C5.454,8.137 6.204,7.844 6.779,7.316L8.419,5.81C9.172,5.12 10.379,5.656 10.379,6.679Z" style="fill:white;"/>
    </g>
</svg>
