<?xml version="1.0" standalone="no"?><!DOCTYPE svg PUBLIC "-//W3C//DTD SVG 1.1//EN" "http://www.w3.org/Graphics/SVG/1.1/DTD/svg11.dtd"><svg t="1773121836203" class="icon" viewBox="0 0 1024 1024" version="1.1" xmlns="http://www.w3.org/2000/svg" p-id="46966" xmlns:xlink="http://www.w3.org/1999/xlink" width="200" height="200"><path d="M170.016 86.016q-34.016 0-59.008 24.992t-24.992 59.008v428h84V170.016h428V86.016H170.016zM342.016 256q-36 0-60.992 24.992t-24.992 60.992V768h86.016V341.984h426.016V255.968H342.048zM512 426.016q-36 0-60.992 24.992T426.016 512v342.016q0 34.016 24.992 59.008t60.992 24.992h342.016q34.016 0 59.008-24.992t24.992-59.008V512q0-36-24.992-60.992t-59.008-24.992H512z" p-id="46967" fill="#ffffff"></path></svg>