<?xml version="1.0" encoding="UTF-8"?>
<svg id="_图层_1" data-name="图层_1" xmlns="http://www.w3.org/2000/svg" version="1.1" viewBox="0 0 24 24">
  <!-- Generator: Adobe Illustrator 29.0.1, SVG Export Plug-In . SVG Version: 2.1.0 Build 192)  -->
  <defs>
    <style>
      .st0 {
        fill: #fff;
      }
    </style>
  </defs>
  <g id="_x5F_Public_x2F_ic_x5F_public_x5F_brightness">
    <g id="_合并形状">
      <path id="_path-1" class="st0" d="M12,20c.4,0,.8.3.8.8v1c0,.4-.3.8-.8.8s-.8-.3-.8-.8v-1c0-.4.3-.8.8-.8ZM18.7,17.7l.9.9c.3.3.3.8,0,1.1-.3.3-.8.3-1.1,0l-.9-.9c-.3-.3-.3-.8,0-1.1.3-.3.8-.3,1.1,0ZM6.3,17.7c.3.3.3.8,0,1.1l-.9.9c-.3.3-.8.3-1.1,0-.3-.3-.3-.8,0-1.1l.9-.9c.3-.3.8-.3,1.1,0ZM12,5c3.9,0,7,3.1,7,7s-3.1,7-7,7-7-3.1-7-7,3.1-7,7-7ZM12,6.5c-3,0-5.5,2.5-5.5,5.5s2.5,5.5,5.5,5.5,5.5-2.5,5.5-5.5-2.5-5.5-5.5-5.5ZM3.2,11.2c.4,0,.8.3.8.8s-.3.8-.8.8h-1.2c-.4,0-.8-.3-.8-.8s.3-.8.8-.8h1.2ZM22,11.2c.4,0,.8.3.8.8s-.3.8-.8.8h-1.2c-.4,0-.8-.3-.8-.8s.3-.8.8-.8h1.2ZM5.5,4.4l.9.9c.3.3.3.8,0,1.1-.3.3-.8.3-1.1,0l-.9-.9c-.3-.3-.3-.8,0-1.1.3-.3.8-.3,1.1,0ZM19.6,4.4c.3.3.3.8,0,1.1l-.9.9c-.3.3-.8.3-1.1,0-.3-.3-.3-.8,0-1.1l.9-.9c.3-.3.8-.3,1.1,0ZM12,1.5c.4,0,.8.3.8.8v1c0,.4-.3.8-.8.8s-.8-.3-.8-.8v-1c0-.4.3-.8.8-.8Z"/>
    </g>
  </g>
</svg>