<?xml version="1.0" encoding="UTF-8"?>
<svg id="_图层_1" data-name="图层_1" xmlns="http://www.w3.org/2000/svg" version="1.1" viewBox="0 0 24 24">
  <!-- Generator: Adobe Illustrator 29.0.1, SVG Export Plug-In . SVG Version: 2.1.0 Build 192)  -->
  <defs>
    <style>
      .st0 {
        fill: #fff;
      }
    </style>
  </defs>
  <g id="_org_to_fov">
    <path id="_形状结合" class="st0" d="M2.8,14.5c.4,0,.8.3.8.8h0v2.8c0,1.3,1,2.4,2.3,2.5h.2s2.8,0,2.8,0c.4,0,.8.3.8.8s-.3.8-.8.8h-2.8c-2.2,0-4-1.8-4-4v-2.8h0c0-.5.4-.8.7-.8ZM21.2,14.5c.4,0,.8.3.8.8h0v2.8c0,2.2-1.8,4-4,4h-2.9c-.4,0-.6-.4-.6-.8s.3-.8.8-.8h2.8c1.3,0,2.4-1,2.5-2.3v-.2s0-2.8,0-2.8h0c0-.5.4-.8.7-.8ZM8.8,2c.4,0,.8.3.8.8s-.3.8-.8.8h-2.8c-1.3,0-2.4,1-2.5,2.3v.2s0,2.8,0,2.8c0,.4-.3.8-.8.8s-.8-.3-.8-.8h0v-2.8c0-2.2,1.8-4,4-4h2.8ZM20.5,6c0-1.3-1-2.4-2.3-2.5h-.2s-2.8,0-2.8,0h-.1c-.4,0-.6-.4-.6-.8s.3-.8.8-.8h2.8c2.2,0,4,1.8,4,4v2.8c0,.4-.3.8-.8.8s-.8-.3-.8-.8h0v-2.8Z"/>
    <path id="_矩形" class="st0" d="M16,6c1.1,0,2,.9,2,2v8c0,1.1-.9,2-2,2h-8c-1.1,0-2-.9-2-2v-8c0-1.1.9-2,2-2h8ZM16,7.5h-8c-.2,0-.4.2-.5.4h0v8.1c0,.2.2.4.4.5h0s8,0,8,0c.2,0,.4-.2.5-.4h0v-8.1c0-.2-.2-.4-.4-.5h0Z"/>
  </g>
</svg>