<?xml version="1.0" standalone="no"?><!DOCTYPE svg PUBLIC "-//W3C//DTD SVG 1.1//EN" "http://www.w3.org/Graphics/SVG/1.1/DTD/svg11.dtd"><svg t="1772351508416" class="icon" viewBox="0 0 1024 1024" version="1.1" xmlns="http://www.w3.org/2000/svg" p-id="6551" xmlns:xlink="http://www.w3.org/1999/xlink" width="200" height="200"><path d="M490.409774 1022.464768c-123.842079-4.247476-201.115442-41.195402-221.175812-106.698651l-2.149326-7.369116v-126.75902c0-145.744728 0-147.842879 7.42029-171.076062 13.765917-41.195402 47.592204-68.624888 98.408396-80.241479l11.667766-2.149326h143.902449c102.655872 0 146.051774 0 150.29925-2.046976 29.629985-6.396802 47.592204-11.667766 65.605597-25.382509 22.209695-15.864068 39.148426-43.293553 45.494053-72.872364 6.345627-22.209695 6.345627-20.06037 6.345628-96.105547V260.989505h102.655872l9.51844 2.149326c52.914343 15.864068 93.137431 65.452074 109.0015 141.497251 6.345627 29.578811 6.345627 31.676962 6.345627 106.647476 0 72.872364 0 72.872364-6.345627 98.254873-6.345627 23.182009-11.667766 43.242379-22.209695 63.353923-20.111544 39.046077-49.741529 66.526737-86.791805 79.166816-22.209695 7.42029-4.247476 6.345627-211.657371 7.42029H509.446655v35.873264h248.707647v127.833683c-2.149325 7.369115-4.247476 17.911044-9.569616 27.429485-6.345627 9.518441-22.209695 25.331334-31.728136 33.775112-33.877461 22.209695-84.642479 35.924438-152.397401 39.097252H490.409774v-1.023488z m171.434283-79.217991c23.284358-4.247476 41.246577-27.48066 37.050275-50.713843-4.247476-20.06037-18.013393-33.775112-37.050275-36.947927a45.289355 45.289355 0 0 0-50.816192 50.662669c4.247476 22.209695 22.209695 35.924438 43.395902 36.999101h7.42029z" fill="#FED142" p-id="6552" data-spm-anchor-id="a313x.search_index.0.i7.39083a81NRZGlf" class="selected"></path><path d="M128.504327 766.029785a135.151624 135.151624 0 0 1-75.124038-47.745727c-37.050275-45.596402-55.063668-123.023288-52.965518-219.538231 2.149325-59.413493 9.518441-105.061069 29.68116-142.162519 23.284358-49.895052 59.25997-77.426887 106.903348-86.996501 9.518441-2.098151 11.616592-2.098151 193.695152-2.098151h185.251375c2.098151 0 2.098151-2.149325 2.098151-18.064568v-18.013393h-248.707646V165.651574c0-71.132434 0-68.983108 6.294452-82.749025C297.891633 37.254973 358.226266 9.723138 457.760498 2.251674c7.42029 0 25.433683-2.098151 43.395902-2.098151 110.127336-2.098151 189.498851 18.013393 232.894753 57.315343 4.247476 4.196302 9.518441 11.616592 13.765917 13.765917 6.345627 7.42029 13.765917 23.335532 18.013393 36.077961l2.098151 7.420289v134.691055c0 124.097951 0 134.742229-2.098151 142.162519a160.175912 160.175912 0 0 1-11.667766 36.077961c-15.864068 29.681159-43.395902 50.867366-80.446177 61.511644-23.284358 6.345627-13.765917 6.345627-171.485457 7.42029-157.71954 0-148.201099 0-169.387306 6.345627-43.395902 11.667766-75.124038 45.647576-86.791804 93.342129-6.345627 22.312044-6.345627 20.162719-6.345627 96.566117v73.17941h-47.592204c-45.545227 2.098151-59.362319 2.098151-63.558621 0z m262.524737-601.452873c18.013393-7.42029 29.681159-29.681159 25.433683-47.745728-4.247476-18.013393-15.864068-31.830485-31.77931-36.077961-25.382509-7.42029-52.914343 7.42029-57.161819 36.077961-4.247476 22.26087 7.42029 43.498251 29.681159 49.843878 4.196302 2.149325 7.369115 2.149325 15.864068 2.149326 10.541929 0 12.691254 0 17.962219-4.247476z" fill="#3571A3" p-id="6553" data-spm-anchor-id="a313x.search_index.0.i6.39083a81NRZGlf" class="selected"></path></svg>