<?xml version="1.0" encoding="UTF-8" standalone="no"?>
<!DOCTYPE svg PUBLIC "-//W3C//DTD SVG 1.1//EN" "http://www.w3.org/Graphics/SVG/1.1/DTD/svg11.dtd">
<svg width="100%" height="100%" viewBox="0 0 100 100" version="1.1" xmlns="http://www.w3.org/2000/svg" xmlns:xlink="http://www.w3.org/1999/xlink" xml:space="preserve" xmlns:serif="http://www.serif.com/" style="fill-rule:evenodd;clip-rule:evenodd;stroke-linejoin:round;stroke-miterlimit:2;">
    <g id="Sound" transform="matrix(5,0,0,5,0,0)">
        <path id="Combined-Shape" d="M12.479,12.667C12.314,12.667 12.146,12.627 11.993,12.544C11.537,12.296 11.386,11.756 11.655,11.338C12.169,10.537 12.169,9.545 11.655,8.746C11.386,8.326 11.537,7.786 11.993,7.538C12.452,7.293 13.038,7.431 13.305,7.848C14.174,9.201 14.174,10.881 13.305,12.234C13.127,12.513 12.807,12.667 12.479,12.667ZM15.381,13.833C15.241,13.833 15.096,13.796 14.967,13.718C14.579,13.485 14.449,12.978 14.679,12.585C15.595,11.016 15.595,9.065 14.679,7.497C14.449,7.104 14.579,6.596 14.967,6.363C15.356,6.134 15.855,6.263 16.085,6.654C17.305,8.743 17.305,11.339 16.085,13.427C15.932,13.689 15.66,13.833 15.381,13.833ZM10.304,5.625L10.304,13.874C10.304,14.851 9.11,15.363 8.365,14.704L6.757,13.28C6.187,12.776 5.445,12.497 4.674,12.497L4.392,12.497C3.624,12.497 3,11.894 3,11.147L3,8.366C3,7.621 3.624,7.017 4.392,7.017L4.658,7.017C5.43,7.017 6.172,6.737 6.741,6.234L8.365,4.796C9.11,4.138 10.304,4.649 10.304,5.625Z" style="fill:white;"/>
    </g>
</svg>
