<?xml version="1.0" encoding="UTF-8"?>
<svg id="_图层_1" data-name="图层_1" xmlns="http://www.w3.org/2000/svg" version="1.1" viewBox="0 0 48 48">
  <!-- Generator: Adobe Illustrator 29.0.1, SVG Export Plug-In . SVG Version: 2.1.0 Build 192)  -->
  <defs>
    <style>
      .st0 {
        fill: #fff;
        fill-rule: evenodd;
      }

      .st1 {
        opacity: .6;
      }

      .st1, .st2 {
        fill: #5bfb84;
      }
    </style>
  </defs>
  <circle class="st1" cx="24" cy="23.9" r="23.2"/>
  <circle class="st2" cx="24" cy="23.9" r="19.9"/>
  <path id="Combined-Shape" class="st0" d="M36.1,13h1.1c.6,0,1.1.5,1.1,1.1s-.5,1.1-1.1,1.1h-1.1v1.1c0,.6-.5,1.1-1.1,1.1s-1.1-.5-1.1-1.1v-1.1h-1.1c-.6,0-1.1-.5-1.1-1.1s.5-1.1,1.1-1.1h1.1v-1.1c0-.6.5-1.1,1.1-1.1s1.1.5,1.1,1.1v1.1ZM32.4,27.2c0,4.7-3.8,6.7-8.5,6.7s-8.5-2-8.5-6.7.2-2.1.6-3v-6.8c-.2-.8.7-1.2,1.3-.7l3.6,2.7c.8-.4,1.9-.6,3-.6s2.2.2,3,.6l3.6-2.7c.6-.4,1.4,0,1.4.7v6.8c.2.8.4,1.8.4,3ZM27.4,30.2c.3-.3.2-.7,0-.9-.3-.2-.7-.2-.9,0-.2.2-.5.4-.8.4-.6,0-1.1-.5-1.1-1.1v-1c1-.3,1.8-1.2,1.8-1.7s-1.1-.7-2.5-.7-2.5,0-2.5.7.8,1.4,1.8,1.7v1c0,.6-.5,1.1-1,1.1s-.6-.1-.8-.4c-.2-.3-.7-.3-.9,0-.3.3-.3.7,0,.9.4.5,1.1.8,1.8.8s1.3-.3,1.7-.7c.4.4,1,.7,1.7.7s1.4-.3,1.8-.8Z"/>
</svg>