<?xml version="1.0" encoding="UTF-8" standalone="no"?>
<!DOCTYPE svg PUBLIC "-//W3C//DTD SVG 1.1//EN" "http://www.w3.org/Graphics/SVG/1.1/DTD/svg11.dtd">
<svg width="100%" height="100%" viewBox="0 0 300 300" version="1.1" xmlns="http://www.w3.org/2000/svg" xmlns:xlink="http://www.w3.org/1999/xlink" xml:space="preserve" xmlns:serif="http://www.serif.com/" style="fill-rule:evenodd;clip-rule:evenodd;stroke-linejoin:round;stroke-miterlimit:2;">
    <g transform="matrix(1,0,0,1,150,150)">
        <g transform="matrix(1,0,0,1,-150,-150)">
            <g transform="matrix(0.292969,0,0,0.292969,0,0)">
                <path d="M534.144,130.321L911.347,331.712C922.448,337.638 929.407,349.24 929.407,361.824C929.407,374.408 922.448,386.01 911.347,391.936L534.148,593.323C519.093,601.361 500.974,601.361 485.918,593.323L108.719,391.936C97.618,386.01 90.659,374.408 90.659,361.824C90.659,349.24 97.618,337.638 108.719,331.712L485.918,130.325C500.974,122.287 519.093,122.287 534.148,130.325L534.144,130.321ZM769.152,626.236C748.369,615.142 740.514,589.291 751.616,568.508C762.709,547.721 788.557,539.866 809.344,550.963L888.038,592.977C925.457,612.954 939.593,659.482 919.616,696.9C912.452,710.318 901.46,721.309 888.043,728.474L558.622,904.354C531.02,919.092 497.802,919.092 470.199,904.354L140.783,728.478C103.364,708.501 89.229,661.973 109.21,624.555C116.374,611.137 127.365,600.146 140.783,592.981L219.831,550.775C240.619,539.674 266.466,547.533 277.568,568.316C288.661,589.103 280.811,614.95 260.023,626.048L195.072,660.727L510.391,829.082C512.901,830.421 515.921,830.421 518.43,829.082L833.749,660.727L769.152,626.24L769.152,626.236Z" style="fill:white;fill-rule:nonzero;"/>
            </g>
        </g>
    </g>
</svg>
