<?xml version="1.0" encoding="UTF-8" standalone="no"?>
<!DOCTYPE svg PUBLIC "-//W3C//DTD SVG 1.1//EN" "http://www.w3.org/Graphics/SVG/1.1/DTD/svg11.dtd">
<svg width="100%" height="100%" viewBox="0 0 300 300" version="1.1" xmlns="http://www.w3.org/2000/svg" xmlns:xlink="http://www.w3.org/1999/xlink" xml:space="preserve" xmlns:serif="http://www.serif.com/" style="fill-rule:evenodd;clip-rule:evenodd;stroke-linejoin:round;stroke-miterlimit:2;">
    <g transform="matrix(1.086667,0,0,1.086667,150,150)">
        <g transform="matrix(1,0,0,1,-150,-150)">
            <g transform="matrix(0.292969,0,0,0.292969,0,0)">
                <path d="M426.677,184.471C434.507,184.471 441.916,187.934 446.916,193.958L526.848,289.882L813.176,289.882C845.583,289.882 872.147,314.97 874.496,346.805L874.677,351.383L874.677,808.147C874.677,841.885 846.915,869.647 813.176,869.647L215.853,869.647C182.115,869.647 154.353,841.885 154.353,808.147L154.353,245.971C154.353,211.998 181.88,184.471 215.853,184.471L426.677,184.471ZM603.407,473.299C593.186,463.085 576.373,463.085 566.152,473.299L563.802,476.009C555.886,486.448 556.895,501.284 566.152,510.554L635.332,579.735L566.152,648.975C561.511,653.869 558.921,660.363 558.921,667.108C558.921,681.565 570.818,693.461 585.274,693.461C592.019,693.461 598.513,690.871 603.407,686.231L691.26,598.408C696.206,593.467 698.987,586.755 698.987,579.765C698.987,572.774 696.206,566.063 691.26,561.122L603.407,473.299ZM462.878,473.299C457.937,468.353 451.226,465.572 444.235,465.572C437.245,465.572 430.533,468.353 425.592,473.299L337.769,561.122C332.824,566.063 330.042,572.774 330.042,579.765C330.042,586.755 332.824,593.467 337.769,598.408L425.592,686.231C430.533,691.176 437.245,693.958 444.235,693.958C451.226,693.958 457.937,691.176 462.878,686.231L465.227,683.52C473.144,673.082 472.135,658.246 462.878,648.975L393.638,579.735L462.878,510.554C473.092,500.333 473.092,483.52 462.878,473.299Z" style="fill:white;fill-rule:nonzero;"/>
            </g>
        </g>
    </g>
</svg>
