<?xml version="1.0" encoding="UTF-8"?>
<svg id="_图层_1" data-name="图层_1" xmlns="http://www.w3.org/2000/svg" version="1.1" viewBox="0 0 200 200">
  <!-- Generator: Adobe Illustrator 29.0.1, SVG Export Plug-In . SVG Version: 2.1.0 Build 192)  -->
  <defs>
    <style>
      .st0 {
        fill: #757575;
      }

      .st1 {
        fill: #202425;
        isolation: isolate;
        opacity: 0;
      }
    </style>
  </defs>
  <path class="st1" d="M0,0h200v200H0V0Z"/>
  <path class="st0" d="M20,100c0-44.2,35.8-80,80-80s80,35.8,80,80-35.8,80-80,80S20,144.2,20,100ZM100,6.7C48.5,6.7,6.7,48.5,6.7,100s41.8,93.3,93.3,93.3,93.3-41.8,93.3-93.3S151.5,6.7,100,6.7ZM71.4,62c-2.6-2.6-6.9-2.5-9.4.2-2.5,2.6-2.5,6.7,0,9.3l28.6,28.6-28.6,28.6c-2.6,2.6-2.7,6.8-.2,9.4,2.6,2.6,6.8,2.7,9.4.2,0,0,.1-.1.2-.2l28.6-28.6,28.6,28.6c2.6,2.6,6.9,2.5,9.4-.2,2.5-2.6,2.5-6.7,0-9.3l-28.6-28.6,28.6-28.6c2.6-2.6,2.5-6.9-.2-9.4-2.6-2.5-6.7-2.5-9.3,0l-28.6,28.6-28.6-28.6Z"/>
</svg>