<?xml version="1.0" encoding="UTF-8"?>
<svg id="_图层_1" data-name="图层_1" xmlns="http://www.w3.org/2000/svg" version="1.1" viewBox="0 0 200 200">
  <!-- Generator: Adobe Illustrator 29.0.1, SVG Export Plug-In . SVG Version: 2.1.0 Build 192)  -->
  <defs>
    <style>
      .st0 {
        fill: #fff;
      }
    </style>
  </defs>
  <path class="st0" d="M37.38,149.43c0,4.41,3.57,8.01,8.01,8.01h30.88c4.41,0,8.01-3.57,8.01-8.01s-3.57-8.01-8.01-8.01h-30.9c-4.41,0-7.99,3.57-7.99,8.01ZM173.69,167.01h-7.99,3.16c2.7-.16,4.82-2.38,4.82-5.12v5.12ZM27.6,167.03h7.99-3.16c-2.7-.16-4.82-2.38-4.82-5.12v5.12ZM173.69,107.34h-7.99,3.16c2.7.16,4.82,2.38,4.82,5.12v-5.12ZM158.12,67.75h-7.99,3.16c2.7.16,4.82,2.38,4.82,5.12v-5.12ZM27.66,47.66h7.99-3.16c-2.7.16-4.82,2.38-4.82,5.12v-5.12Z"/>
  <path class="st0" d="M176.97,91.43H45.37c-4.41,0-8.01,3.57-8.01,8.01s3.57,8.01,8.01,8.01h128.32v59.59H27.6V47.68h56.11l10.29,15.9c1.4,2.59,4.11,4.2,7.05,4.2h57.01v12.38c0,4.41,3.57,8.01,8.01,8.01s8.01-3.57,8.01-8.01v-16.25c-.63-6.78-6.31-12.07-13.24-12.07h-10.64v-.04h-44.75l-10.53-16.27-.12-.18c-1.43-2.21-3.91-3.69-6.74-3.69h-52.46v.02h-10.64c-7.34,0-13.3,5.96-13.3,13.3v.1h-.02v125.7c.47,6.41,5.47,11.54,11.82,12.23h153.71c6.46-.29,11.72-5.2,12.56-11.5v-68.05c-.64-6.58-6.07-11.78-12.75-12.03Z"/>
</svg>