<?xml version="1.0" encoding="UTF-8"?>
<svg id="_图层_1" data-name="图层_1" xmlns="http://www.w3.org/2000/svg" version="1.1" viewBox="0 0 200 200">
  <!-- Generator: Adobe Illustrator 29.0.1, SVG Export Plug-In . SVG Version: 2.1.0 Build 192)  -->
  <defs>
    <style>
      .st0 {
        fill: #fff;
      }
    </style>
  </defs>
  <path class="st0" d="M191.4,59.22c-4.71,0-8.53,3.82-8.53,8.53v105.38c0,5.37-4.37,9.74-9.74,9.74H26.86c-5.37,0-9.74-4.37-9.74-9.74V26.85c0-5.37,4.37-9.74,9.74-9.74h105.38c4.71,0,8.53-3.82,8.53-8.53S136.95.05,132.24.05H26.86C12.08.05.06,12.07.06,26.85v146.28c0,14.78,12.02,26.8,26.8,26.8h146.28c14.78,0,26.8-12.02,26.8-26.8v-105.38c0-4.71-3.82-8.53-8.53-8.53Z"/>
  <path class="st0" d="M178.97,6.45c-2.72-2.73-7.32-3.08-9.69-.69l-15.01,15,24.68,25.07,15.23-15.21c1.06-1.06,1.65-2.53,1.65-4.17,0-1.97-.87-3.98-2.38-5.5l-14.47-14.5Z"/>
  <path class="st0" d="M66.3,108.69l24.89,24.86,81.1-81.05-24.68-25.08-81.32,81.27Z"/>
  <path class="st0" d="M54.53,145.92l31.54-8.64-22.94-22.94-8.6,31.58Z"/>
</svg>