<?xml version="1.0" encoding="UTF-8" standalone="no"?>
<!DOCTYPE svg PUBLIC "-//W3C//DTD SVG 1.1//EN" "http://www.w3.org/Graphics/SVG/1.1/DTD/svg11.dtd">
<svg width="100%" height="100%" viewBox="0 0 300 300" version="1.1" xmlns="http://www.w3.org/2000/svg" xmlns:xlink="http://www.w3.org/1999/xlink" xml:space="preserve" xmlns:serif="http://www.serif.com/" style="fill-rule:evenodd;clip-rule:evenodd;stroke-linejoin:round;stroke-miterlimit:2;">
    <g transform="matrix(1.25,0,0,1.25,150,150)">
        <g transform="matrix(1,0,0,1,-100,-100)">
            <g transform="matrix(0.239729,0,0,0.239729,-29.185358,-29.185358)">
                <path d="M870.4,744.96L870.4,330.24C913.92,320 947.2,279.04 947.2,230.4C947.2,174.08 901.12,128 844.8,128C796.16,128 757.76,161.28 744.96,204.8L330.24,204.8C320,161.28 279.04,128 230.4,128C174.08,128 128,174.08 128,230.4C128,279.04 161.28,317.44 204.8,330.24L204.8,747.52C161.28,757.76 128,798.72 128,847.36C128,903.68 174.08,949.76 230.4,949.76C279.04,949.76 317.44,916.48 330.24,872.96L747.52,872.96C757.76,916.48 798.72,949.76 847.36,949.76C903.68,949.76 949.76,903.68 949.76,847.36C947.2,796.16 913.92,757.76 870.4,744.96ZM844.8,179.2C872.96,179.2 896,202.24 896,230.4C896,258.56 872.96,281.6 844.8,281.6C816.64,281.6 793.6,258.56 793.6,230.4C793.6,202.24 816.64,179.2 844.8,179.2ZM179.2,230.4C179.2,202.24 202.24,179.2 230.4,179.2C258.56,179.2 281.6,202.24 281.6,230.4C281.6,258.56 258.56,281.6 230.4,281.6C202.24,281.6 179.2,258.56 179.2,230.4ZM230.4,896C202.24,896 179.2,872.96 179.2,844.8C179.2,816.64 202.24,793.6 230.4,793.6C258.56,793.6 281.6,816.64 281.6,844.8C281.6,872.96 258.56,896 230.4,896ZM744.96,819.2L330.24,819.2C320,783.36 291.84,755.2 256,744.96L256,330.24C291.84,320 320,291.84 330.24,256L747.52,256C757.76,291.84 785.92,320 821.76,330.24L821.76,747.52C783.36,755.2 755.2,783.36 744.96,819.2ZM844.8,896C816.64,896 793.6,872.96 793.6,844.8C793.6,816.64 816.64,793.6 844.8,793.6C872.96,793.6 896,816.64 896,844.8C896,872.96 872.96,896 844.8,896Z" style="fill:white;fill-rule:nonzero;"/>
            </g>
        </g>
    </g>
</svg>
